<svg width="2062" height="2013" xmlns="http://www.w3.org/2000/svg" xmlns:xlink="http://www.w3.org/1999/xlink" xml:space="preserve" overflow="hidden"><g transform="translate(-1169 -231)"><path d="M1169 1237.5C1169 681.625 1630.59 231 2200 231 2769.41 231 3231 681.625 3231 1237.5 3231 1793.37 2769.41 2244 2200 2244 1630.59 2244 1169 1793.37 1169 1237.5Z" fill="#FFC000" fill-rule="evenodd"/><path d="M1267.5 1238C1267.5 739.011 1685.22 334.5 2200.5 334.5 2715.78 334.5 3133.5 739.011 3133.5 1238 3133.5 1736.99 2715.78 2141.5 2200.5 2141.5 1685.22 2141.5 1267.5 1736.99 1267.5 1238Z" stroke="#882CF9" stroke-width="55" stroke-miterlimit="8" fill="none" fill-rule="evenodd"/><path d="M2241 1237.5C2241 1057.18 2387.63 911 2568.5 911 2749.37 911 2896 1057.18 2896 1237.5 2896 1417.82 2749.37 1564 2568.5 1564 2387.63 1564 2241 1417.82 2241 1237.5Z" stroke="#882CF9" stroke-width="64.1667" stroke-miterlimit="8" fill="none" fill-rule="evenodd"/><path d="M1504.5 1105.5C1504.5 1083.96 1521.96 1066.5 1543.5 1066.5L2085.5 1066.5C2107.04 1066.5 2124.5 1083.96 2124.5 1105.5L2124.5 1105.5C2124.5 1127.04 2107.04 1144.5 2085.5 1144.5L1543.5 1144.5C1521.96 1144.5 1504.5 1127.04 1504.5 1105.5Z" stroke="#882CF9" stroke-width="4.58333" stroke-miterlimit="8" fill="#882CF9" fill-rule="evenodd"/><path d="M1623.5 1258C1623.5 1236.74 1640.74 1219.5 1662 1219.5L2086 1219.5C2107.26 1219.5 2124.5 1236.74 2124.5 1258L2124.5 1258C2124.5 1279.26 2107.26 1296.5 2086 1296.5L1662 1296.5C1640.74 1296.5 1623.5 1279.26 1623.5 1258Z" stroke="#882CF9" stroke-width="4.58333" stroke-miterlimit="8" fill="#882CF9" fill-rule="evenodd"/><path d="M1722.5 1409.5C1722.5 1389.07 1739.07 1372.5 1759.5 1372.5L2087.5 1372.5C2107.93 1372.5 2124.5 1389.07 2124.5 1409.5L2124.5 1409.5C2124.5 1429.93 2107.93 1446.5 2087.5 1446.5L1759.5 1446.5C1739.07 1446.5 1722.5 1429.93 1722.5 1409.5Z" stroke="#882CF9" stroke-width="4.58333" stroke-miterlimit="8" fill="#882CF9" fill-rule="evenodd"/></g></svg>